<svg width="1200" height="630" viewBox="0 0 1200 630" xmlns="http://www.w3.org/2000/svg">
  <defs>
    <!-- Green gradient background -->
    <linearGradient id="bgGradient" x1="0%" y1="0%" x2="0%" y2="100%">
      <stop offset="0%" style="stop-color:#0a660a;stop-opacity:1" />
      <stop offset="100%" style="stop-color:#2d8659;stop-opacity:1" />
    </linearGradient>
    <!-- Text styles -->
    <style>
      .quote { font-family: system-ui, -apple-system, BlinkMacSystemFont, 'Segoe UI', sans-serif; font-weight: 400; }
      .attribution { font-family: system-ui, -apple-system, BlinkMacSystemFont, 'Segoe UI', sans-serif; font-weight: 400; }
      .tagline { font-family: system-ui, -apple-system, BlinkMacSystemFont, 'Segoe UI', sans-serif; font-weight: 400; }
      .domain { font-family: system-ui, -apple-system, BlinkMacSystemFont, 'Segoe UI', sans-serif; font-weight: 400; }
    </style>
  </defs>
  
  <!-- Background with gradient -->
  <rect width="1200" height="630" fill="url(#bgGradient)"/>
  
  <!-- Main quote content - centered -->
  <g transform="translate(600, 200)">
    <!-- Quote text -->
    <text x="0" y="0" class="quote" font-size="40" fill="white" text-anchor="middle" letter-spacing="-0.01em">
      "Great weather"
    </text>
    
    <!-- Attribution -->
    <text x="0" y="80" class="attribution" font-size="18" fill="rgba(255,255,255,0.8)" text-anchor="middle">
      Rahul • Dec 30
    </text>
    
    <!-- Location -->
    <text x="0" y="110" class="attribution" font-size="18" fill="rgba(255,255,255,0.8)" text-anchor="middle">
      Cancún, Mexico
    </text>
  </g>
  
  <!-- Divider line -->
  <line x1="300" y1="420" x2="900" y2="420" stroke="rgba(255,255,255,0.5)" stroke-width="1"/>
  
  <!-- Bottom section -->
  <g transform="translate(600, 480)">
    <!-- Tagline -->
    <text x="0" y="0" class="tagline" font-size="14" fill="rgba(255,255,255,0.9)" text-anchor="middle">
      Share gratitude daily
    </text>
    
    <!-- Logo and domain -->
    <g transform="translate(0, 35)">
      <!-- Star logo from icon.svg - scaled and positioned -->
      <g transform="translate(-60, -12) scale(0.8)">
        <path d="M11.525 2.295a.53.53 0 0 1 .95 0l2.31 4.679a2.123 2.123 0 0 0 1.595 1.16l5.166.756a.53.53 0 0 1 .294.904l-3.736 3.638a2.123 2.123 0 0 0-.611 1.878l.882 5.14a.53.53 0 0 1-.771.56l-4.618-2.428a2.122 2.122 0 0 0-1.973 0L6.396 21.01a.53.53 0 0 1-.77-.56l.881-5.139a2.122 2.122 0 0 0-.611-1.879L2.16 9.795a.53.53 0 0 1 .294-.906l5.165-.755a2.122 2.122 0 0 0 1.597-1.16z" 
              fill="white" 
              opacity="0.9"/>
      </g>
      <!-- Domain -->
      <text x="20" y="5" class="domain" font-size="12" fill="rgba(255,255,255,0.8)" text-anchor="start">
        grateful.so
      </text>
    </g>
  </g>
</svg>

